<svg id="图层_1" data-name="图层 1" xmlns="http://www.w3.org/2000/svg" xmlns:xlink="http://www.w3.org/1999/xlink" viewBox="0 0 1016.3 61.56"><defs><style>.cls-1{fill:none;}.cls-2{clip-path:url(#clip-path);}.cls-3{fill:#231815;}</style><clipPath id="clip-path" transform="translate(0 0)"><rect class="cls-1" width="1016.3" height="61.56"/></clipPath></defs><g class="cls-2"><path class="cls-3" d="M395,21.62q-1-2.39-2.15-5.65T391,10.37c.1,1.51.2,3.64.28,6.39s.12,5.38.12,7.86v36h-6.94V1.94h9.94l15.28,36.77a106.09,106.09,0,0,1,4.73,13.2q1.75-5.47,5-13.08L435,1.94h9.7V60.57h-7.45V24.62q0-5,.56-14.25a130.55,130.55,0,0,1-4.61,12.43L417.1,60.66h-5.89Z" transform="translate(0 0)"/><path class="cls-3" d="M483.16,60.57a40.08,40.08,0,0,1-.64-6,19.69,19.69,0,0,1-6.27,4.86,18.54,18.54,0,0,1-8.56,2,15,15,0,0,1-6.7-1.45,11.15,11.15,0,0,1-4.69-4.34,13.36,13.36,0,0,1-1.72-7,12.49,12.49,0,0,1,4.49-10.06q4.49-3.8,14.91-3.79a63.65,63.65,0,0,1,8.3.57v-1.1q0-6.72-2.69-9.43t-7.53-2.71a25.76,25.76,0,0,0-6.68.93,34.6,34.6,0,0,0-6.15,2.23L458,19.52a32.63,32.63,0,0,1,6.51-2.21,35.76,35.76,0,0,1,8.68-1A20.34,20.34,0,0,1,482,18a12.11,12.11,0,0,1,5.65,5.91q2,4.17,2,11.26V52.35c0,1.81.1,4.55.32,8.22Zm-6.51-6.82a16.6,16.6,0,0,0,5.63-4.35V40a69.21,69.21,0,0,0-7.42-.44q-7.17,0-10,2.35a7.81,7.81,0,0,0-2.78,6.31q0,3.77,2,5.55a7.7,7.7,0,0,0,5.35,1.78,15.94,15.94,0,0,0,7.2-1.8" transform="translate(0 0)"/><path class="cls-3" d="M505.14,58.23q-3.06-3.16-3.06-10.49V22.92h-5.7l1-5.06,4.93-.73.56-10.08L509.37,6V17.13H522.2l-1,5.79H509.37V47c0,2.89.54,5,1.61,6.32a6.06,6.06,0,0,0,5,2,19.78,19.78,0,0,0,6.17-1.25l1.28,5.22a22.86,22.86,0,0,1-4.25,1.5,21.47,21.47,0,0,1-5.21.6c-3.85,0-6.79-1.05-8.84-3.15" transform="translate(0 0)"/><path class="cls-3" d="M562,39.11H533.26q.07,8.14,3.67,12.21t10.36,4.07a28.3,28.3,0,0,0,12.15-2.79l1.72,5.34a31.35,31.35,0,0,1-6.88,2.55,35.23,35.23,0,0,1-8.43.89,21.37,21.37,0,0,1-11-2.63,16.68,16.68,0,0,1-6.81-7.59,28.07,28.07,0,0,1-2.31-11.92,29,29,0,0,1,2.41-12.35,18,18,0,0,1,6.71-7.9,18.23,18.23,0,0,1,9.92-2.71,16,16,0,0,1,9.64,2.79,16.49,16.49,0,0,1,5.72,7.35,26.15,26.15,0,0,1,1.84,9.9Zm-7.41-5.26q-.4-6-3-9a8.87,8.87,0,0,0-7-3,9.48,9.48,0,0,0-7.23,3.06q-2.87,3.06-3.71,9Z" transform="translate(0 0)"/><path class="cls-3" d="M575.51,60.29a39.29,39.29,0,0,1-8.26-3l2.56-6.27A37.57,37.57,0,0,0,577.35,54a29.1,29.1,0,0,0,7.58,1.1,14.23,14.23,0,0,0,6.37-1.28,8.76,8.76,0,0,0,3.83-3.46,9.8,9.8,0,0,0,1.26-5,8.24,8.24,0,0,0-1.58-5.12,12.7,12.7,0,0,0-4-3.44q-2.46-1.36-7-3.3a62.55,62.55,0,0,1-8.11-4.15,17.43,17.43,0,0,1-5.27-5.13,13.37,13.37,0,0,1-2.09-7.61,14.7,14.7,0,0,1,2.25-8.12A14.66,14.66,0,0,1,577,3.06a23.06,23.06,0,0,1,9.76-1.93,34.73,34.73,0,0,1,8.28,1,29.22,29.22,0,0,1,6.91,2.49l-1.52,6.23a32.65,32.65,0,0,0-13.59-3.36,13.71,13.71,0,0,0-8,2.11,7.16,7.16,0,0,0-3,6.31,7.65,7.65,0,0,0,1.48,4.76,13.5,13.5,0,0,0,4.13,3.48,77.41,77.41,0,0,0,7.5,3.63A59.45,59.45,0,0,1,597,31.93a15.7,15.7,0,0,1,5,5,14.28,14.28,0,0,1,1.91,7.65,16.82,16.82,0,0,1-2.31,8.93,14.91,14.91,0,0,1-6.67,5.81,24.64,24.64,0,0,1-10.42,2,37.71,37.71,0,0,1-9-1.09" transform="translate(0 0)"/><path class="cls-3" d="M616.45,58.23q-3.06-3.16-3.07-10.49V22.92h-5.69l1-5.06,4.93-.73.56-10.08L620.68,6V17.13h12.83l-1,5.79H620.68V47c0,2.89.53,5,1.6,6.32a6.07,6.07,0,0,0,5,2,19.83,19.83,0,0,0,6.18-1.25l1.28,5.22a23.12,23.12,0,0,1-4.25,1.5,21.47,21.47,0,0,1-5.21.6q-5.77,0-8.84-3.15" transform="translate(0 0)"/><path class="cls-3" d="M665.93,60.57a40.08,40.08,0,0,1-.64-6A19.69,19.69,0,0,1,659,59.4a18.51,18.51,0,0,1-8.56,2,14.94,14.94,0,0,1-6.69-1.45,11,11,0,0,1-4.69-4.34,13.36,13.36,0,0,1-1.73-7,12.49,12.49,0,0,1,4.49-10.06q4.49-3.8,14.91-3.79a63.65,63.65,0,0,1,8.3.57v-1.1q0-6.72-2.69-9.43t-7.53-2.71a25.82,25.82,0,0,0-6.68.93A34.6,34.6,0,0,0,642,25.23l-1.28-5.71a32.63,32.63,0,0,1,6.51-2.21,35.76,35.76,0,0,1,8.68-1A20.31,20.31,0,0,1,664.75,18a12.11,12.11,0,0,1,5.65,5.91q2,4.17,2,11.26V52.35c0,1.81.1,4.55.32,8.22Zm-6.51-6.82a16.6,16.6,0,0,0,5.63-4.35V40a69,69,0,0,0-7.41-.44q-7.18,0-10,2.35a7.84,7.84,0,0,0-2.78,6.31q0,3.77,2,5.55a7.7,7.7,0,0,0,5.35,1.78,15.91,15.91,0,0,0,7.2-1.8" transform="translate(0 0)"/><path class="cls-3" d="M687.91,58.23q-3.06-3.16-3.06-10.49V22.92h-5.69l1-5.06,4.93-.73.56-10.08L692.14,6V17.13H705l-1,5.79H692.14V47c0,2.89.54,5,1.61,6.32a6.07,6.07,0,0,0,5,2,19.78,19.78,0,0,0,6.17-1.25l1.28,5.22a23,23,0,0,1-4.24,1.5,21.61,21.61,0,0,1-5.22.6q-5.76,0-8.84-3.15" transform="translate(0 0)"/><path class="cls-3" d="M712.42,8.44a4.94,4.94,0,0,1-1.36-3.58,4.73,4.73,0,0,1,1.36-3.52A4.78,4.78,0,0,1,715.91,0a4.86,4.86,0,0,1,3.53,1.36,4.66,4.66,0,0,1,1.4,3.5,4.82,4.82,0,0,1-4.93,5,4.67,4.67,0,0,1-3.49-1.4m-.24,8.69h7.38V60.57h-7.38Z" transform="translate(0 0)"/><path class="cls-3" d="M737.65,58.77a18.12,18.12,0,0,1-7.07-7.59A25.71,25.71,0,0,1,728,39.28a27.2,27.2,0,0,1,2.57-12.17,19,19,0,0,1,7.15-8,19.86,19.86,0,0,1,10.57-2.81A19.63,19.63,0,0,1,758.68,19a18.54,18.54,0,0,1,7.05,7.88,26.63,26.63,0,0,1,2.53,12A26,26,0,0,1,765.63,51a18.53,18.53,0,0,1-7.23,7.75,20.5,20.5,0,0,1-10.46,2.67,20.18,20.18,0,0,1-10.29-2.61m19.91-7.59q3-4.24,3-11.78,0-7.86-3.18-12.51A10.62,10.62,0,0,0,748,22.23q-6.22,0-9.28,4.51t-3.07,12.09a24.06,24.06,0,0,0,1.48,8.91,12.19,12.19,0,0,0,4.37,5.71,12,12,0,0,0,7,2q6,0,9.06-4.25" transform="translate(0 0)"/><path class="cls-3" d="M776.55,28.22c0-4.07-.1-7.77-.32-11.09h6.82c.16.92.3,2.06.44,3.44s.22,2.5.28,3.36a29.55,29.55,0,0,1,6.79-5.59,16.4,16.4,0,0,1,8.36-2.06q6.42,0,9.72,4.19T812,32.76V60.57h-7.38V33.24q0-10.84-7.89-10.85a12.29,12.29,0,0,0-6.7,2,27.91,27.91,0,0,0-6.05,5.28V60.57h-7.38Z" transform="translate(0 0)"/><path class="cls-3" d="M872.3,31.48a14,14,0,0,1,4.79,5.16,15.31,15.31,0,0,1,1.74,7.41,15.92,15.92,0,0,1-2.34,8.61,15.57,15.57,0,0,1-6.86,5.83,25.66,25.66,0,0,1-10.84,2.08H841.47V1.94h16.08q8.85,0,13.4,3.55a11.72,11.72,0,0,1,4.55,9.82,13.29,13.29,0,0,1-2.78,8.56,15.25,15.25,0,0,1-7.44,5,18.14,18.14,0,0,1,7,2.61m-23.41-5h7.29A13.09,13.09,0,0,0,862.4,25a10.32,10.32,0,0,0,4.13-3.82A10.13,10.13,0,0,0,868,15.91,6.72,6.72,0,0,0,865.06,10q-2.91-2-8.44-2h-7.73ZM868,51.75c2.22-1.87,3.33-4.52,3.33-8q0-5.55-3.73-8.46c-2.49-2-6.05-2.92-10.71-2.92h-8V54.54h9q6.76,0,10.1-2.79" transform="translate(0 0)"/><path class="cls-3" d="M885.83,56l2.28-6.12a25.72,25.72,0,0,0,6.82,3.91,22.2,22.2,0,0,0,8.22,1.52,14.16,14.16,0,0,0,7-1.62,10.5,10.5,0,0,0,4.39-4.58A15.21,15.21,0,0,0,916,42.15q0-5.91-3.63-9t-10.21-3.06a34.74,34.74,0,0,0-7.23.73,38.79,38.79,0,0,0-6.07,1.79l2.32-30.7h29.3l-.8,6.44H897l-1.36,17a27.85,27.85,0,0,1,8.42-1.22,24.17,24.17,0,0,1,10,2,15.94,15.94,0,0,1,7.07,6,17.49,17.49,0,0,1,2.61,9.78,20.57,20.57,0,0,1-2.5,10.28,17,17,0,0,1-7.12,6.8,22.92,22.92,0,0,1-10.74,2.39Q893,61.38,885.83,56" transform="translate(0 0)"/><path class="cls-3" d="M930.48,55.07l6.17-5.71q8.79-8.31,13.15-13a44.18,44.18,0,0,0,6.74-9,18.88,18.88,0,0,0,2.36-9.07q0-5.55-3.09-8.28a11.56,11.56,0,0,0-8-2.73A16,16,0,0,0,940.48,9a26.41,26.41,0,0,0-6.59,4.92L931,8.3a23,23,0,0,1,7.64-5.24,24.69,24.69,0,0,1,9.92-1.93,20.74,20.74,0,0,1,9,1.93A15.39,15.39,0,0,1,964,8.81a16.81,16.81,0,0,1,2.45,9.25,21.08,21.08,0,0,1-2.73,10.22,49.36,49.36,0,0,1-7.37,10q-4.65,5-13,12.68L940,54.13l28.94,0-.8,6.48H930.48Z" transform="translate(0 0)"/><path class="cls-3" d="M982.28,53.77q-4.74-7.6-4.75-22,0-14.65,4.92-22.65t14.77-8q9.57,0,14.33,7.56t4.75,22q0,14.65-4.89,22.68t-14.83,8q-9.55,0-14.3-7.61m23.54-4.7q2.89-6.23,2.9-18.14,0-11.33-2.72-17.57t-8.9-6.23q-11.91,0-11.91,24.61,0,11.46,2.73,17.52t8.82,6.05q6.16,0,9.08-6.24" transform="translate(0 0)"/><polygon class="cls-3" points="38.81 25.66 11.91 25.66 11.91 1.98 0 1.98 0 60.68 11.91 60.68 11.91 36.84 38.81 36.84 38.81 60.68 50.72 60.68 50.72 1.98 38.81 1.98 38.81 25.66"/><path class="cls-3" d="M105.91,35.58c0,9.54-4.74,14.64-13.35,14.64S79.14,45,79.14,35.17V2H67.23V35.58c0,16.51,9.17,26,25.17,26s25.42-9.65,25.42-26.47V2H105.91Z" transform="translate(0 0)"/><polygon class="cls-3" points="243.56 42.34 230.24 1.97 220.51 1.97 207.19 42.34 194.22 2 181.54 2 202 60.68 211.87 60.68 225.21 22.14 238.56 60.68 248.51 60.68 268.91 2 256.56 2 243.56 42.34"/><polygon class="cls-3" points="290.27 35.42 311.93 35.42 311.93 24.73 290.27 24.73 290.27 12.71 321.72 12.71 321.72 2.02 278.52 2.02 278.52 60.65 322.85 60.65 322.85 49.95 290.27 49.95 290.27 35.42"/><rect class="cls-3" x="337.05" y="1.97" width="11.75" height="58.63"/><path class="cls-3" d="M168.22,48.43l5.27,12.22H186L160.21,2H149.72L123.85,60.65H136l5.35-12.22Zm-13.46-31.6,9,21h-18Z" transform="translate(0 0)"/></g></svg>