<svg id="组_54494" data-name="组 54494" xmlns="http://www.w3.org/2000/svg" xmlns:xlink="http://www.w3.org/1999/xlink" width="514.848" height="31.861" viewBox="0 0 514.848 31.861">
  <defs>
    <clipPath id="clip-path">
      <rect id="矩形_17218" data-name="矩形 17218" width="514.848" height="31.861" fill="#231815"/>
    </clipPath>
  </defs>
  <path id="路径_24618" data-name="路径 24618" d="M19.345,3.984V15.79H5.938V3.984H0V33.248H5.938V21.363H19.345V33.248h5.938V3.984Z" transform="translate(0 -1.837)" fill="#231815"/>
  <g id="组_54493" data-name="组 54493">
    <g id="组_54492" data-name="组 54492" clip-path="url(#clip-path)">
      <path id="路径_24619" data-name="路径 24619" d="M81.471,20.734c0,4.759-2.362,7.3-6.651,7.3-4.315,0-6.691-2.612-6.691-7.5V4H62.192V20.734c0,8.232,4.573,12.952,12.549,12.952,8.051,0,12.668-4.809,12.668-13.194V3.984H81.471Z" transform="translate(-28.679 -1.837)" fill="#231815"/>
      <path id="路径_24620" data-name="路径 24620" d="M198.857,24.1,192.212,3.977h-4.845L180.723,24.1,174.259,3.994h-6.32l10.2,29.251h4.918l6.654-19.215,6.652,19.215h4.959L211.492,3.994h-6.157Z" transform="translate(-77.443 -1.834)" fill="#231815"/>
      <path id="路径_24621" data-name="路径 24621" d="M263.5,20.672h10.8v-5.33H263.5V9.352h15.676V4.021H257.647V33.246h22.1v-5.33H263.5Z" transform="translate(-118.81 -1.854)" fill="#231815"/>
      <rect id="矩形_17216" data-name="矩形 17216" width="5.857" height="29.225" transform="translate(168.016 2.145)" fill="#231815"/>
      <path id="路径_24622" data-name="路径 24622" d="M136.69,27.139l2.627,6.091h6.223L132.7,3.984h-5.232L114.572,33.23h6.061l2.665-6.091Zm-6.71-15.75,4.5,10.474h-8.977Z" transform="translate(-52.833 -1.837)" fill="#231815"/>
      <path id="路径_24623" data-name="路径 24623" d="M365.845,13.82Q365.356,12.625,364.8,11t-.908-2.8q.078,1.134.137,3.2t.058,3.927V33.292h-3.38V3.982h4.845L373,22.362a53.373,53.373,0,0,1,2.305,6.6q.859-2.733,2.442-6.538l7.6-18.441h4.728v29.31h-3.634V15.318q0-2.49.273-7.125a64.694,64.694,0,0,1-2.247,6.215L376.61,33.333h-2.872Z" transform="translate(-166.334 -1.836)" fill="#231815"/>
      <path id="路径_24624" data-name="路径 24624" d="M439.756,39.425a20.592,20.592,0,0,1-.313-3.017,9.7,9.7,0,0,1-3.057,2.429,8.821,8.821,0,0,1-4.171.992,7.147,7.147,0,0,1-3.263-.729,5.44,5.44,0,0,1-2.286-2.165,6.828,6.828,0,0,1-.84-3.5,6.319,6.319,0,0,1,2.188-5.03q2.188-1.892,7.268-1.892a30.563,30.563,0,0,1,4.045.283v-.547q0-3.359-1.308-4.716a4.873,4.873,0,0,0-3.674-1.356,12.273,12.273,0,0,0-3.253.465,16.943,16.943,0,0,0-3,1.114l-.626-2.854a15.884,15.884,0,0,1,3.176-1.1,17.029,17.029,0,0,1,4.23-.517,9.685,9.685,0,0,1,4.308.871,5.994,5.994,0,0,1,2.755,2.956,13.325,13.325,0,0,1,.987,5.627v8.582q0,1.357.157,4.109Zm-3.174-3.411a8.132,8.132,0,0,0,2.745-2.176v-4.7a32.272,32.272,0,0,0-3.614-.223q-3.5,0-4.856,1.174A3.962,3.962,0,0,0,429.5,33.25a3.6,3.6,0,0,0,.967,2.774,3.7,3.7,0,0,0,2.609.891,7.593,7.593,0,0,0,3.507-.9" transform="translate(-196.364 -7.968)" fill="#231815"/>
      <path id="路径_24625" data-name="路径 24625" d="M469.615,33.85q-1.495-1.579-1.495-5.243V16.2h-2.774l.488-2.53,2.4-.364.273-5.041,3.165-.526v5.567h6.252L477.44,16.2h-5.764V28.243a5.108,5.108,0,0,0,.782,3.158,2.917,2.917,0,0,0,2.442.992,9.358,9.358,0,0,0,3.009-.627l.625,2.611a10.755,10.755,0,0,1-2.071.749,10.1,10.1,0,0,1-2.54.3,5.649,5.649,0,0,1-4.308-1.579" transform="translate(-214.588 -3.568)" fill="#231815"/>
      <path id="路径_24626" data-name="路径 24626" d="M511.289,28.7H497.28q.039,4.068,1.787,6.1a6.3,6.3,0,0,0,5.051,2.034,13.472,13.472,0,0,0,5.92-1.4l.84,2.672a15.121,15.121,0,0,1-3.351,1.274,16.915,16.915,0,0,1-4.113.446,10.216,10.216,0,0,1-5.343-1.316,8.265,8.265,0,0,1-3.322-3.8,14.359,14.359,0,0,1-1.124-5.961,14.893,14.893,0,0,1,1.173-6.174,8.928,8.928,0,0,1,3.273-3.947,8.713,8.713,0,0,1,4.835-1.356,7.679,7.679,0,0,1,4.7,1.4,8.228,8.228,0,0,1,2.784,3.674,13.375,13.375,0,0,1,.9,4.949Zm-3.615-2.632a7.623,7.623,0,0,0-1.475-4.5,4.27,4.27,0,0,0-3.429-1.507,4.573,4.573,0,0,0-3.526,1.528,8.17,8.17,0,0,0-1.807,4.484Z" transform="translate(-227.629 -7.968)" fill="#231815"/>
      <path id="路径_24627" data-name="路径 24627" d="M551.8,18.749a6.945,6.945,0,0,1,2.335,2.581,7.78,7.78,0,0,1,.85,3.7,8.091,8.091,0,0,1-1.143,4.3A7.615,7.615,0,0,1,550.5,32.25a12.239,12.239,0,0,1-5.285,1.043h-8.44V3.982h7.835q4.319,0,6.536,1.771a5.936,5.936,0,0,1,2.217,4.909A6.77,6.77,0,0,1,552,14.942a7.383,7.383,0,0,1-3.624,2.5,8.732,8.732,0,0,1,3.419,1.306m-11.41-2.52h3.556a6.269,6.269,0,0,0,3.028-.709,5.052,5.052,0,0,0,2.012-1.914,5.14,5.14,0,0,0,.7-2.641,3.39,3.39,0,0,0-1.417-2.976A7.137,7.137,0,0,0,544.159,7h-3.771Zm9.32,12.651a4.976,4.976,0,0,0,1.622-3.988,5.1,5.1,0,0,0-1.818-4.23,8.165,8.165,0,0,0-5.217-1.457h-3.907V30.276h4.4a7.4,7.4,0,0,0,4.924-1.4" transform="translate(-247.525 -1.836)" fill="#231815"/>
      <path id="路径_24628" data-name="路径 24628" d="M582.261,38.524a8.961,8.961,0,0,1-3.448-3.8,13.117,13.117,0,0,1-1.251-5.951,13.887,13.887,0,0,1,1.251-6.083,9.712,9.712,0,0,1,13.7-4.039,9.2,9.2,0,0,1,3.439,3.937,13.661,13.661,0,0,1,1.231,5.981,13.287,13.287,0,0,1-1.28,6.042,9.188,9.188,0,0,1-3.526,3.876,9.793,9.793,0,0,1-5.1,1.336,9.629,9.629,0,0,1-5.011-1.305m9.7-3.8a10.26,10.26,0,0,0,1.465-5.89,11.122,11.122,0,0,0-1.553-6.255,5.137,5.137,0,0,0-4.562-2.327,5.057,5.057,0,0,0-4.523,2.257,10.8,10.8,0,0,0-1.495,6.042,12.309,12.309,0,0,0,.723,4.453,6.054,6.054,0,0,0,2.13,2.854,5.748,5.748,0,0,0,3.4.993,5.006,5.006,0,0,0,4.415-2.126" transform="translate(-266.334 -7.968)" fill="#231815"/>
      <path id="路径_24629" data-name="路径 24629" d="M625.045,38.524a8.96,8.96,0,0,1-3.448-3.8,13.117,13.117,0,0,1-1.251-5.951,13.887,13.887,0,0,1,1.251-6.083,9.712,9.712,0,0,1,13.7-4.039,9.2,9.2,0,0,1,3.439,3.937,13.662,13.662,0,0,1,1.231,5.981,13.3,13.3,0,0,1-1.28,6.042,9.193,9.193,0,0,1-3.526,3.876,9.792,9.792,0,0,1-5.1,1.336,9.629,9.629,0,0,1-5.011-1.305m9.7-3.8a10.26,10.26,0,0,0,1.465-5.89,11.121,11.121,0,0,0-1.554-6.255,5.137,5.137,0,0,0-4.562-2.327,5.057,5.057,0,0,0-4.523,2.257,10.8,10.8,0,0,0-1.495,6.042,12.31,12.31,0,0,0,.723,4.453,6.054,6.054,0,0,0,2.13,2.854,5.748,5.748,0,0,0,3.4.993,5.006,5.006,0,0,0,4.415-2.126" transform="translate(-286.064 -7.968)" fill="#231815"/>
      <path id="路径_24630" data-name="路径 24630" d="M666.031.4l3.6-.405v19.96l9.143-10.223h4.1l-8.245,9.049,9.047,12.671h-4.3l-7.17-10.3-2.579,2.287v8.016h-3.6Z" transform="translate(-307.131 0)" fill="#231815"/>
      <path id="路径_24631" data-name="路径 24631" d="M741.018,18.749a6.941,6.941,0,0,1,2.335,2.581,7.774,7.774,0,0,1,.85,3.7,8.087,8.087,0,0,1-1.143,4.3,7.61,7.61,0,0,1-3.341,2.914,12.238,12.238,0,0,1-5.285,1.043h-8.44V3.982h7.834q4.319,0,6.536,1.771a5.937,5.937,0,0,1,2.217,4.909,6.77,6.77,0,0,1-1.358,4.28,7.385,7.385,0,0,1-3.624,2.5,8.728,8.728,0,0,1,3.419,1.306m-11.41-2.52h3.556a6.269,6.269,0,0,0,3.028-.709,5.051,5.051,0,0,0,2.012-1.914,5.141,5.141,0,0,0,.7-2.641,3.391,3.391,0,0,0-1.417-2.976A7.137,7.137,0,0,0,733.379,7h-3.771Zm9.32,12.651a4.976,4.976,0,0,0,1.622-3.988,5.105,5.105,0,0,0-1.817-4.23,8.167,8.167,0,0,0-5.217-1.457h-3.907V30.276H734a7.4,7.4,0,0,0,4.923-1.4" transform="translate(-334.782 -1.836)" fill="#231815"/>
      <path id="路径_24632" data-name="路径 24632" d="M770.741,32.662a13.045,13.045,0,0,1-4.1-2l1.133-3.2a13.124,13.124,0,0,0,3.586,2.054,11.2,11.2,0,0,0,4.034.759,7.436,7.436,0,0,0,3.351-.688,4.839,4.839,0,0,0,2.091-1.923,5.568,5.568,0,0,0,.713-2.834,4.858,4.858,0,0,0-1.817-4.008,8.27,8.27,0,0,0-5.276-1.458h-2.97V16.348h2.032a8.527,8.527,0,0,0,3.605-.709,5.509,5.509,0,0,0,2.364-1.974,5.176,5.176,0,0,0,.83-2.9,4.292,4.292,0,0,0-1.289-3.28,4.9,4.9,0,0,0-3.5-1.214,8.245,8.245,0,0,0-3.722.88,10.735,10.735,0,0,0-2.9,2.034l-1.231-2.753a12.306,12.306,0,0,1,3.566-2.287A11.587,11.587,0,0,1,775.9,3.23a9.882,9.882,0,0,1,4.318.891,6.677,6.677,0,0,1,2.862,2.511,6.908,6.908,0,0,1,1.007,3.724,6.756,6.756,0,0,1-1.612,4.565,8.166,8.166,0,0,1-4.269,2.561,9.126,9.126,0,0,1,5.109,2.389,6.828,6.828,0,0,1,1.964,5.141,7.712,7.712,0,0,1-4.65,7.307,12.191,12.191,0,0,1-5.177,1.032,16.516,16.516,0,0,1-4.709-.688" transform="translate(-353.524 -1.489)" fill="#231815"/>
      <rect id="矩形_17217" data-name="矩形 17217" width="11.195" height="3.056" transform="translate(436.012 18.765)" fill="#231815"/>
      <path id="路径_24633" data-name="路径 24633" d="M848.528,26.449h-13.11V23.676L848.567,3.494h3.6V23.311h4.2l-.489,3.137h-3.712v6.619h-3.634Zm0-3.137V8.352l-9.71,14.959Z" transform="translate(-385.241 -1.611)" fill="#231815"/>
      <path id="路径_24634" data-name="路径 24634" d="M890.043,26.449H876.934V23.676L890.082,3.494h3.6V23.311h4.2l-.489,3.137h-3.712v6.619h-3.634Zm0-3.137V8.352l-9.71,14.959Z" transform="translate(-404.386 -1.611)" fill="#231815"/>
      <path id="路径_24635" data-name="路径 24635" d="M922.686,29.545q-2.316-3.805-2.316-10.991,0-7.328,2.394-11.326a7.848,7.848,0,0,1,7.2-4,7.653,7.653,0,0,1,6.985,3.775q2.314,3.776,2.315,11,0,7.329-2.384,11.336a7.857,7.857,0,0,1-7.229,4.008,7.619,7.619,0,0,1-6.965-3.806M934.154,27.2q1.416-3.118,1.416-9.069a23.111,23.111,0,0,0-1.328-8.785A4.5,4.5,0,0,0,929.9,6.227q-5.8,0-5.8,12.308a22.579,22.579,0,0,0,1.329,8.754,4.463,4.463,0,0,0,4.3,3.026,4.653,4.653,0,0,0,4.425-3.117" transform="translate(-424.415 -1.49)" fill="#231815"/>
    </g>
  </g>
</svg>
